<svg xmlns="http://www.w3.org/2000/svg" width="824" height="580" viewBox="0 0 824 580" font-family="-apple-system, BlinkMacSystemFont, 'Segoe UI', Roboto, Helvetica, Arial, sans-serif">
  <!-- vuegram component preview: the same components under light and dark Telegram themes. -->

  <!-- ===================== LIGHT PANEL ===================== -->
  <g transform="translate(20,20)">
    <rect width="380" height="540" rx="24" fill="#efeff4" stroke="#e6e6e9"/>

    <text x="20" y="44" font-size="22" font-weight="700" fill="#000000">vuegram</text>
    <text x="20" y="66" font-size="13" fill="#707579">Vue components for Telegram Mini Apps</text>

    <text x="20" y="102" font-size="11" letter-spacing="1" fill="#707579">BUTTONS</text>
    <rect x="20" y="112" width="340" height="40" rx="10" fill="#2481cc"/>
    <text x="190" y="137" text-anchor="middle" font-size="15" font-weight="500" fill="#ffffff">Primary</text>
    <rect x="20" y="160" width="340" height="40" rx="10" fill="#ffffff"/>
    <text x="190" y="185" text-anchor="middle" font-size="15" font-weight="500" fill="#2481cc">Secondary</text>
    <rect x="20" y="208" width="340" height="40" rx="10" fill="#ffffff"/>
    <text x="190" y="233" text-anchor="middle" font-size="15" font-weight="500" fill="#cc2929">Destructive</text>

    <text x="20" y="280" font-size="11" letter-spacing="1" fill="#707579">CELLS</text>
    <rect x="20" y="290" width="340" height="104" rx="14" fill="#ffffff"/>
    <text x="36" y="307" font-size="15" dominant-baseline="middle" fill="#000000">Notifications</text>
    <text x="36" y="325" font-size="13" dominant-baseline="middle" fill="#707579">enabled</text>
    <text x="344" y="316" text-anchor="end" dominant-baseline="middle" font-size="18" fill="#707579">&#8250;</text>
    <line x1="36" y1="342" x2="344" y2="342" stroke="#e6e6e9"/>
    <text x="36" y="359" font-size="15" dominant-baseline="middle" fill="#000000">Privacy</text>
    <text x="36" y="377" font-size="13" dominant-baseline="middle" fill="#707579">all set</text>
    <text x="344" y="368" text-anchor="end" dominant-baseline="middle" font-size="18" fill="#707579">&#8250;</text>

    <text x="20" y="418" font-size="11" letter-spacing="1" fill="#707579">SPINNER</text>
    <circle cx="190" cy="468" r="14" fill="none" stroke="#2481cc" stroke-width="3" stroke-linecap="round" stroke-dasharray="66 24" transform="rotate(-30 190 468)"/>
    <text x="190" y="502" text-anchor="middle" font-size="13" fill="#707579">Loading&#8230;</text>

    <text x="190" y="524" text-anchor="middle" font-size="12" fill="#707579">Light theme</text>
  </g>

  <!-- ===================== DARK PANEL ===================== -->
  <g transform="translate(424,20)">
    <rect width="380" height="540" rx="24" fill="#0e1621" stroke="#243140"/>

    <text x="20" y="44" font-size="22" font-weight="700" fill="#ffffff">vuegram</text>
    <text x="20" y="66" font-size="13" fill="#7d8b99">Vue components for Telegram Mini Apps</text>

    <text x="20" y="102" font-size="11" letter-spacing="1" fill="#7d8b99">BUTTONS</text>
    <rect x="20" y="112" width="340" height="40" rx="10" fill="#5288c1"/>
    <text x="190" y="137" text-anchor="middle" font-size="15" font-weight="500" fill="#ffffff">Primary</text>
    <rect x="20" y="160" width="340" height="40" rx="10" fill="#17212b"/>
    <text x="190" y="185" text-anchor="middle" font-size="15" font-weight="500" fill="#6ab3f3">Secondary</text>
    <rect x="20" y="208" width="340" height="40" rx="10" fill="#17212b"/>
    <text x="190" y="233" text-anchor="middle" font-size="15" font-weight="500" fill="#ec3942">Destructive</text>

    <text x="20" y="280" font-size="11" letter-spacing="1" fill="#7d8b99">CELLS</text>
    <rect x="20" y="290" width="340" height="104" rx="14" fill="#17212b"/>
    <text x="36" y="307" font-size="15" dominant-baseline="middle" fill="#ffffff">Notifications</text>
    <text x="36" y="325" font-size="13" dominant-baseline="middle" fill="#7d8b99">enabled</text>
    <text x="344" y="316" text-anchor="end" dominant-baseline="middle" font-size="18" fill="#7d8b99">&#8250;</text>
    <line x1="36" y1="342" x2="344" y2="342" stroke="#243140"/>
    <text x="36" y="359" font-size="15" dominant-baseline="middle" fill="#ffffff">Privacy</text>
    <text x="36" y="377" font-size="13" dominant-baseline="middle" fill="#7d8b99">all set</text>
    <text x="344" y="368" text-anchor="end" dominant-baseline="middle" font-size="18" fill="#7d8b99">&#8250;</text>

    <text x="20" y="418" font-size="11" letter-spacing="1" fill="#7d8b99">SPINNER</text>
    <circle cx="190" cy="468" r="14" fill="none" stroke="#6ab3f3" stroke-width="3" stroke-linecap="round" stroke-dasharray="66 24" transform="rotate(-30 190 468)"/>
    <text x="190" y="502" text-anchor="middle" font-size="13" fill="#7d8b99">Loading&#8230;</text>

    <text x="190" y="524" text-anchor="middle" font-size="12" fill="#7d8b99">Dark theme</text>
  </g>
</svg>
